<?xml version="1.0" encoding="UTF-8"?>
<svg id="Texte" xmlns="http://www.w3.org/2000/svg" viewBox="0 0 1008 612">
  <defs>
    <style>
      .cls-1 {
        fill: #fff;
      }

      .cls-2 {
        fill: #00d8ff;
      }
    </style>
  </defs>
  <path class="cls-1" d="M.11,357.3l-.11-183.1h51.46l.11,183.08c0,16.65,13.26,30.26,29.91,30.24,16.65,0,30.26-13.63,30.24-30.28l-.11-183.1h51.08l.11,183.08c.02,45.03-36.27,81.36-81.3,81.39-45.03.02-81.36-36.27-81.39-81.3h0Z"/>
  <path class="cls-1" d="M223.34,433.19l-.16-259.14,65.45-.04c52.96-.02,96.11,43.08,96.15,96.04.02,52.96-43.08,96.11-96.04,96.15h-13.99l.04,66.98h-51.46v.02ZM274.73,314.76h13.99c24.59,0,44.63-20.09,44.61-44.67,0-24.59-20.09-44.63-44.67-44.61h-13.99l.04,89.28h.02Z"/>
  <path class="cls-1" d="M448.81,433.06l-.13-207.69h-43.12l-.02-51.43,138.07-.09v51.46l-43.48.02.13,207.69h-51.46v.04Z"/>
  <path class="cls-2" d="M543.78,432.75l-.16-259.14h51.46l.02,51.86.13,207.24h-51.46v.04Z"/>
  <path class="cls-1" d="M631.24,432.77l-.16-259.14,65.45-.04c71.5-.04,129.78,58.17,129.83,129.67s-58.17,129.41-129.67,129.45l-65.45.04v.02ZM682.68,381.29h13.99c43.5-.04,78.28-34.85,78.26-77.99-.02-43.5-34.85-78.28-78.35-78.26h-13.99l.09,156.25h0Z"/>
  <path class="cls-1" d="M869.95,432.63l-.16-259.14,138.07-.09v51.46l-86.6.04v51.83l86.66-.04v51.08l-86.6.04v53.34l86.66-.04v51.46l-138.05.09v-.02Z"/>
</svg>